#!OML:ASF X:\für Bonn\!DataBase\2005_08_10_Bjorn_Final\c3d\bjorn.ASF
:FULLY-SPECIFIED
:DEGREES
845
root -0.147811 1.5659 11.5122 -2070.32 -6.15509 188.372
lowerback -2.3233 0.187446 -3.48912
upperback 4.07983 0.403106 -4.70079
thorax 5.55163 0.0496096 -2.92078
lowerneck -18.6161 -5.40844 0.61892
upperneck 5.20846 -8.28856 5.20776
head 4.74126 -3.87947 0.743217
rclavicle 4.77083e-015 4.57205e-015
rhumerus -56.4582 43.5326 -104.166
rradius 111.94
rwrist -32.6494
rhand 11.643 6.64199
rfingers 7.12502
rthumb 36.6829 -19.5038
lclavicle 4.77083e-015 4.57205e-015
lhumerus -60.3549 -67.0143 104.151
lradius 112.488
lwrist 34.9729
lhand 6.35215 -11.9349
lfingers 7.12502
lthumb 31.6588 735.339
rfemur -367.211 -23.9771 366.904
rtibia 29.0073
rfoot 5.5954 -11.3061
rtoes 13.0233
lfemur -6.41908 2.04716 -14.8773
ltibia 20.4345
lfoot 7.04476 9.43457
ltoes 2.30945
846
root -0.148015 1.56662 11.5122 -2070.32 -6.15309 188.374
lowerback -2.33819 0.187421 -3.48738
upperback 4.09561 0.404492 -4.69795
thorax 5.57686 0.049986 -2.91917
lowerneck -18.6598 -5.41822 0.584366
upperneck 5.20362 -8.29708 5.22732
head 4.74896 -3.88277 0.752673
rclavicle 2.22639e-014 4.27387e-014
rhumerus -56.4045 43.5318 -104.108
rradius 111.957
rwrist -32.6788
rhand 11.6962 6.59599
rfingers 7.12502
rthumb 36.7333 -19.5369
lclavicle 2.22639e-014 4.27387e-014
lhumerus -60.2651 -67.0069 104.067
lradius 112.492
lwrist 34.9534
lhand 6.38767 -11.926
lfingers 7.12502
lthumb 31.6927 735.341
rfemur -367.209 -23.9801 366.904
rtibia 29.0061
rfoot 5.59679 -11.304
rtoes 13.0212
lfemur -6.42231 2.10043 -14.8717
ltibia 20.4376
lfoot 7.07515 9.39656
ltoes 2.20952
847
root -0.148002 1.56663 11.512 -2070.33 -6.16764 188.374
lowerback -2.34151 0.197306 -3.48159
upperback 4.11912 0.417366 -4.72335
thorax 5.60429 0.0557082 -2.94888
lowerneck -18.7463 -5.41786 0.625057
upperneck 5.22516 -8.31142 5.22529
head 4.76778 -3.88802 0.741745
rclavicle 3.18055e-014 4.09496e-014
rhumerus -56.317 43.4921 -104.068
rradius 111.954
rwrist -32.6958
rhand 11.7196 6.59874
rfingers 7.12502
rthumb 36.7554 -19.5286
lclavicle 3.18055e-014 4.09496e-014
lhumerus -60.1683 -67.0666 103.944
lradius 112.513
lwrist 34.9911
lhand 6.38449 -11.8911
lfingers 7.12502
lthumb 31.6896 735.377
rfemur -367.202 -23.9806 366.884
rtibia 29.0091
rfoot 5.59798 -11.3011
rtoes 13.0204
lfemur -6.41271 2.09904 -14.8879
ltibia 20.4336
lfoot 7.07983 9.40307
ltoes 2.30884
848
root -0.147988 1.56721 11.5118 -2070.34 -6.15396 188.372
lowerback -2.34352 0.199674 -3.46718
upperback 4.13165 0.420316 -4.71962
thorax 5.61879 0.0574962 -2.95314
lowerneck -18.7605 -5.42406 0.629049
upperneck 5.20495 -8.32003 5.21901
head 4.76331 -3.89331 0.738335
rclavicle 9.54166e-015 -3.83654e-014
rhumerus -56.2799 43.4863 -104.035
rradius 111.962
rwrist -32.7372
rhand 11.73 6.56448
rfingers 7.12502
rthumb 36.7652 -19.5603
lclavicle 9.54166e-015 -3.83654e-014
lhumerus -60.1563 -67.0707 103.933
lradius 112.523
lwrist 34.9622
lhand 6.37315 -11.8782
lfingers 7.12502
lthumb 31.6788 735.392
rfemur -367.188 -23.9515 366.895
rtibia 29.0067
rfoot 5.5628 -11.3118
rtoes 13.0693
lfemur -6.40121 2.09585 -14.8718
ltibia 20.4351
lfoot 7.07073 9.41288
ltoes 2.25991
849
root -0.148144 1.56755 11.5116 -2070.34 -6.16882 188.373
lowerback -2.35336 0.19595 -3.48343
upperback 4.15737 0.417315 -4.72388
thorax 5.65152 0.0546046 -2.94944
lowerneck -18.8459 -5.42138 0.609334
upperneck 5.22745 -8.31793 5.23969
head 4.78535 -3.8895 0.745345
rclavicle 4.77083e-015 4.39314e-014
rhumerus -56.2238 43.4977 -104
rradius 111.965
rwrist -32.7085
rhand 11.7475 6.55713
rfingers 7.12502
rthumb 36.7818 -19.5634
lclavicle 4.77083e-015 4.39314e-014
lhumerus -60.0262 -67.0756 103.808
lradius 112.526
lwrist 34.9723
lhand 6.39106 -11.8573
lfingers 7.12502
lthumb 31.6959 735.409
rfemur -367.179 -23.9838 366.868
rtibia 29.0048
rfoot 5.59216 -11.2885
rtoes 13.0454
lfemur -6.39236 2.09322 -14.8893
ltibia 20.4327
lfoot 7.06908 9.41339
ltoes 2.24266
850
root -0.147813 1.56797 11.5114 -2070.35 -6.15305 188.381
lowerback -2.35717 0.194453 -3.47265
upperback 4.18449 0.41589 -4.71531
thorax 5.68229 0.0537605 -2.94723
lowerneck -18.9193 -5.42949 0.599335
upperneck 5.23911 -8.32947 5.24131
head 4.80106 -3.89401 0.744164
rclavicle 5.40694e-014 -8.34896e-015
rhumerus -56.1549 43.5065 -103.935
rradius 111.965
rwrist -32.7553
rhand 11.7559 6.53496
rfingers 7.12502
rthumb 36.7898 -19.5836
lclavicle 5.40694e-014 -8.34896e-015
lhumerus -59.9138 -67.0917 103.715
lradius 112.522
lwrist 34.9609
lhand 6.37715 -11.861
lfingers 7.12502
lthumb 31.6826 735.408
rfemur -367.16 -23.9687 366.884
rtibia 29.0013
rfoot 5.5729 -11.3011
rtoes 13.0534
lfemur -6.38003 2.10448 -14.8676
ltibia 20.4304
lfoot 7.07847 9.40472
ltoes 2.18346
851
root -0.147581 1.56854 11.5118 -2070.34 -6.15243 188.382
lowerback -2.3807 0.195707 -3.47355
upperback 4.19894 0.419611 -4.71408
thorax 5.71118 0.0551736 -2.94572
lowerneck -18.9678 -5.43157 0.585435
upperneck 5.24906 -8.33355 5.26008
head 4.81327 -3.89429 0.750242
rclavicle -4.77083e-015 1.21259e-014
rhumerus -56.0926 43.4997 -103.88
rradius 111.968
rwrist -32.7779
rhand 11.7707 6.5062
rfingers 7.12502
rthumb 36.8038 -19.6087
lclavicle -4.77083e-015 1.21259e-014
lhumerus -59.8298 -67.1059 103.642
lradius 112.526
lwrist 34.9704
lhand 6.38133 -11.838
lfingers 7.12502
lthumb 31.6866 735.43
rfemur -367.176 -23.9205 366.898
rtibia 29.0037
rfoot 5.54315 -11.3329
rtoes 13.0032
lfemur -6.38602 2.10578 -14.8673
ltibia 20.4241
lfoot 7.08144 9.40515
ltoes 2.18244
852
root -0.147606 1.56855 11.5114 -2070.36 -6.15223 188.383
lowerback -2.37306 0.192006 -3.47548
upperback 4.21962 0.4147 -4.71468
thorax 5.72853 0.05215 -2.94607
lowerneck -19.0099 -5.43388 0.559369
upperneck 5.23235 -8.33599 5.29278
head 4.81722 -3.89431 0.763246
rclavicle 1.43125e-014 2.44505e-014
rhumerus -56.027 43.5079 -103.834
rradius 111.976
rwrist -32.7699
rhand 11.8217 6.46065
rfingers 7.12502
rthumb 36.8521 -19.6419
lclavicle 1.43125e-014 2.44505e-014
lhumerus -59.7525 -67.1034 103.574
lradius 112.525
lwrist 34.9836
lhand 6.35665 -11.8083
lfingers 7.12502
lthumb 31.6631 735.465
rfemur -367.158 -23.92 366.891
rtibia 29.0042
rfoot 5.54533 -11.3405
rtoes 13.0404
lfemur -6.36554 2.06816 -14.8652
ltibia 20.4198
lfoot 7.03239 9.44771
ltoes 2.26865
